<svg xmlns="http://www.w3.org/2000/svg" xmlns:xlink="http://www.w3.org/1999/xlink" width="297" height="96" viewBox="0 0 297 96"><defs><path id="hgt0a" d="M218.81 190.21v5.61h18.03l-18.03 18.42v4.01h3.87l18.03-18.42v18.42h5.54v-28.04zm-17.06 14.77h-4.47v-9.86h4.47c2.74 0 4.52 2.28 4.52 4.93s-1.78 4.93-4.52 4.93zm-11 13.27h6.53v-7.9h3.06l5 7.9h7.58l-5.65-9a9.98 9.98 0 0 0 5.61-9.2c0-5.54-4.03-10.3-10.28-10.3h-11.85zm-12.39-54.81h80.28v81.12h-80.28zM171 252h95v-96h-95z"/><path id="hgt0b" d="M301.26 160.9c0 1.23-.89 2.11-2.25 2.11h-2.92v-4.22h2.92c1.36 0 2.25.87 2.25 2.11zm.16 11.1H305l-3.54-6.9a4.3 4.3 0 0 0 2.9-4.2c0-2.68-1.92-4.9-5.15-4.9H293v16h3.09v-6.38h2.23z"/><path id="hgt0c" d="M313 172h3v-16h-3z"/><path id="hgt0d" d="M330.95 172c-2.47 0-4.35-.51-5.95-2.08l2.06-1.99c1.03 1 2.43 1.33 3.94 1.33 1.88 0 2.89-.69 2.89-1.95 0-.55-.16-1.01-.51-1.32-.32-.29-.68-.44-1.44-.55l-1.97-.27a5.65 5.65 0 0 1-3.16-1.3 4.07 4.07 0 0 1-1.17-3.09c0-2.81 2.15-4.78 5.68-4.78 2.24 0 3.87.53 5.27 1.83l-2.02 1.93a4.64 4.64 0 0 0-3.34-1.09c-1.7 0-2.52.91-2.52 1.99 0 .4.14.82.48 1.13.32.29.85.53 1.51.62l1.93.26c1.48.2 2.42.6 3.11 1.22.87.79 1.26 1.95 1.26 3.34 0 3.05-2.63 4.77-6.05 4.77"/><path id="hgt0e" d="M346 172h3v-16h-3z"/><path id="hgt0f" d="M367.27 172l-6.21-9.82V172H358v-16h2.73l6.21 9.8V156H370v16h-2.73"/><path id="hgt0g" d="M390.46 170.21a6.05 6.05 0 0 1-4.54 1.79 6.02 6.02 0 0 1-4.34-1.72c-1.63-1.6-1.58-3.56-1.58-6.28s-.05-4.68 1.58-6.28a5.94 5.94 0 0 1 4.34-1.72 5.75 5.75 0 0 1 6.06 5.04h-3.17c-.36-1.48-1.28-2.3-2.89-2.3-.86 0-1.56.33-2.01.84-.61.66-.77 1.39-.77 4.42 0 3.03.16 3.78.77 4.44.45.51 1.15.82 2.01.82a3 3 0 0 0 2.24-.88 3 3 0 0 0 .72-2.1v-.6h-2.96v-2.56H392v2.3c0 2.27-.41 3.64-1.54 4.79"/><path id="hgt0h" d="M300 185.79V199h-3v-13.21h-4V183h11v2.79h-4"/><path id="hgt0i" d="M313 199h3v-16h-3z"/><path id="hgt0j" d="M334.77 190.93c0 2.43-.09 3.58-.7 4.3-.55.65-1.3.98-2.41.98h-2.43v-10.42h2.43c1.11 0 1.86.33 2.41.99.61.71.7 1.73.7 4.15zm1.55 6.54c1.86-1.8 1.67-4.13 1.67-6.54 0-2.4.19-4.6-1.67-6.4a6.1 6.1 0 0 0-4.36-1.53H326v16h5.96a6.1 6.1 0 0 0 4.36-1.53z"/><path id="hgt0k" d="M346 199v-16h11v2.79h-7.74v3.75h6.59v2.79h-6.59v3.88H357V199h-11"/><path id="hgt0l" d="M293 225h1v-16h-1z"/><path id="hgt0m" d="M316.36 225l-8.63-12.83V225H306v-16h1.64l8.63 12.79V209H318v16h-1.64"/><path id="hgt0n" d="M338.36 225l-8.63-12.83V225H328v-16h1.64l8.63 12.79V209H340v16h-1.64"/><path id="hgt0o" d="M358.32 217c0 3.29-.11 4.35-1.1 5.37a3.8 3.8 0 0 1-5.44 0c-.99-1.02-1.1-2.08-1.1-5.37s.11-4.35 1.1-5.37a3.8 3.8 0 0 1 5.44 0c.99 1.02 1.1 2.08 1.1 5.37zm.2 6.36c1.48-1.48 1.48-3.02 1.48-6.36 0-3.34 0-4.89-1.48-6.36a5.53 5.53 0 0 0-4.02-1.64c-1.57 0-2.96.57-4.02 1.64-1.48 1.47-1.48 3.02-1.48 6.36 0 3.34 0 4.88 1.48 6.36a5.57 5.57 0 0 0 4.02 1.64c1.57 0 2.96-.58 4.02-1.64z"/><path id="hgt0p" d="M375.7 225h-1.4l-5.3-16h1.81l4.19 12.94 4.19-12.94H381l-5.3 16"/><path id="hgt0q" d="M394.46 219.9h-5.9l2.97-8.45zm1.74 5.1h1.8l-5.78-16h-1.42l-5.8 16h1.79l1.27-3.62h6.88z"/><path id="hgt0r" d="M410.36 210.53V225h-1.72v-14.47H404V209h11v1.53h-4.64"/><path id="hgt0s" d="M424 225h1v-16h-1z"/><path id="hgt0t" d="M445.32 217c0 3.29-.11 4.35-1.1 5.37a3.8 3.8 0 0 1-5.44 0c-.99-1.02-1.1-2.08-1.1-5.37s.11-4.35 1.1-5.37a3.8 3.8 0 0 1 5.44 0c.99 1.02 1.1 2.08 1.1 5.37zm.2 6.36c1.48-1.48 1.48-3.02 1.48-6.36 0-3.34 0-4.89-1.48-6.36a5.53 5.53 0 0 0-4.02-1.64c-1.57 0-2.96.57-4.02 1.64-1.48 1.47-1.48 3.02-1.48 6.36 0 3.34 0 4.88 1.48 6.36a5.57 5.57 0 0 0 4.02 1.64c1.57 0 2.96-.58 4.02-1.64z"/><path id="hgt0u" d="M466.36 225l-8.63-12.83V225H456v-16h1.64l8.62 12.79V209H468v16h-1.64"/><path id="hgt0v" d="M298.52 252a5.59 5.59 0 0 1-4.03-1.64C293 248.89 293 247.34 293 244c0-3.34 0-4.88 1.49-6.36a5.59 5.59 0 0 1 4.03-1.64c2.84 0 4.95 1.73 5.48 4.69h-1.73c-.42-1.93-1.77-3.19-3.75-3.19-1.04 0-2.04.4-2.73 1.11-.99 1.01-1.1 2.1-1.1 5.39 0 3.29.11 4.38 1.1 5.39a3.81 3.81 0 0 0 2.73 1.11c1.98 0 3.37-1.26 3.79-3.19H304a5.32 5.32 0 0 1-5.48 4.69"/><path id="hgt0w" d="M313 252v-16h9v1.53h-7.45v5.64h6.35v1.53h-6.35v5.77H322V252h-9"/><path id="hgt0x" d="M343.36 252l-8.63-12.83V252H333v-16h1.64l8.63 12.78V236H345v16h-1.64"/><path id="hgt0y" d="M359.36 237.53V252h-1.72v-14.47H353V236h11v1.53h-4.64"/><path id="hgt0z" d="M373 252v-16h9v1.53h-7.45v5.64h6.35v1.53h-6.35v5.77H382V252h-9"/><path id="hgt0A" d="M401.01 240.47c0 1.96-1.3 2.92-3.13 2.92h-4.2v-5.86h4.2c1.83 0 3.13.99 3.13 2.94zm.02 11.53H403l-3.73-7.26a4.13 4.13 0 0 0 3.42-4.29c0-2.77-1.92-4.45-4.66-4.45H392v16h1.68v-7.1h3.78z"/></defs><g><g transform="translate(-171 -156)"><g><use fill="#fff" xlink:href="#hgt0a"/></g><g><use fill="#fff" xlink:href="#hgt0b"/></g><g><use fill="#fff" xlink:href="#hgt0c"/></g><g><use fill="#fff" xlink:href="#hgt0d"/></g><g><use fill="#fff" xlink:href="#hgt0e"/></g><g><use fill="#fff" xlink:href="#hgt0f"/></g><g><use fill="#fff" xlink:href="#hgt0g"/></g><g><use fill="#fff" xlink:href="#hgt0h"/></g><g><use fill="#fff" xlink:href="#hgt0i"/></g><g><use fill="#fff" xlink:href="#hgt0j"/></g><g><use fill="#fff" xlink:href="#hgt0k"/></g><g><use fill="#fff" xlink:href="#hgt0l"/></g><g><use fill="#fff" xlink:href="#hgt0m"/></g><g><use fill="#fff" xlink:href="#hgt0n"/></g><g><use fill="#fff" xlink:href="#hgt0o"/></g><g><use fill="#fff" xlink:href="#hgt0p"/></g><g><use fill="#fff" xlink:href="#hgt0q"/></g><g><use fill="#fff" xlink:href="#hgt0r"/></g><g><use fill="#fff" xlink:href="#hgt0s"/></g><g><use fill="#fff" xlink:href="#hgt0t"/></g><g><use fill="#fff" xlink:href="#hgt0u"/></g><g><use fill="#fff" xlink:href="#hgt0v"/></g><g><use fill="#fff" xlink:href="#hgt0w"/></g><g><use fill="#fff" xlink:href="#hgt0x"/></g><g><use fill="#fff" xlink:href="#hgt0y"/></g><g><use fill="#fff" xlink:href="#hgt0z"/></g><g><use fill="#fff" xlink:href="#hgt0A"/></g></g></g></svg>